# Blender v2.90.1 OBJ File: ''
# www.blender.org
mtllib Sofa.mtl
o Cube_Cube.004
v -4.804646 0.015383 1.600068
v -4.804646 2.015383 1.600068
v -4.804646 0.015383 -1.673982
v -4.804646 2.015383 -1.673982
v 4.789670 0.015383 1.600068
v 4.789670 2.015383 1.600068
v 4.789670 0.015383 -1.673982
v 4.789670 2.015383 -1.673982
v 4.382053 0.015383 -1.673982
v -4.397030 0.015383 -1.673982
v -4.397029 2.015383 -1.673982
v 4.382054 2.015383 -1.673982
v -4.397029 0.015383 1.600068
v 4.382054 0.015383 1.600068
v 4.382053 1.157304 1.600068
v -4.397030 1.157304 1.600068
v -4.804646 0.015383 -1.354957
v -4.804646 2.015383 -1.354957
v 4.789670 0.015383 -1.354957
v 4.789670 2.015383 -1.354957
v 4.382054 1.157304 -1.354957
v -4.397029 1.157304 -1.354957
v -4.397030 0.015383 -1.354957
v 4.382053 0.015383 -1.354957
v -4.804646 2.448432 -1.354957
v -4.804646 2.448432 -1.673982
v 4.382054 2.448432 -1.673982
v 4.789670 2.448432 -1.673982
v 4.789670 2.448432 -1.354957
v -4.397029 2.448432 -1.673982
v 4.382054 2.448432 -1.354957
v -4.397029 2.448432 -1.354957
v 4.789670 2.448432 1.287460
v 4.789670 2.135824 1.600068
v 4.789670 2.406551 1.443764
v 4.789670 2.292128 1.558187
v -4.397030 2.448432 1.287460
v -4.397030 2.135824 1.600068
v -4.397030 2.406551 1.443764
v -4.397030 2.292128 1.558187
v -4.804646 2.135824 1.600068
v -4.804646 2.448432 1.287460
v -4.804646 2.292128 1.558187
v -4.804646 2.406551 1.443764
v 4.382053 2.135824 1.600068
v 4.382053 2.448432 1.287460
v 4.382053 2.292128 1.558187
v 4.382053 2.406551 1.443764
vt 0.375000 0.225640
vt 0.625000 0.225640
vt 0.625000 0.250000
vt 0.375000 0.250000
vt 0.375000 0.416667
vt 0.625000 0.416667
vt 0.625000 0.500000
vt 0.375000 0.500000
vt 0.375000 0.524360
vt 0.625000 0.524360
vt 0.625000 0.750000
vt 0.375000 0.750000
vt 0.375000 0.916667
vt 0.625000 0.916667
vt 0.625000 1.000000
vt 0.375000 1.000000
vt 0.291667 0.524360
vt 0.291667 0.750000
vt 0.791667 0.524360
vt 0.708333 0.524360
vt 0.708333 0.524360
vt 0.791667 0.524360
vt 0.625000 0.333333
vt 0.625000 0.250000
vt 0.625000 0.333333
vt 0.791667 0.750000
vt 0.708333 0.750000
vt 0.125000 0.524360
vt 0.208333 0.524360
vt 0.208333 0.750000
vt 0.125000 0.750000
vt 0.625000 0.833333
vt 0.375000 0.833333
vt 0.375000 0.333333
vt 0.208333 0.500000
vt 0.291667 0.500000
vt 0.125000 0.500000
vt 0.625000 0.500000
vt 0.625000 0.524360
vt 0.625000 0.225640
vt 0.375000 0.000000
vt 0.625000 0.000000
vt 0.791667 0.726130
vt 0.791667 0.738065
vt 0.791667 0.746802
vt 0.791667 0.750000
vt 0.625000 0.750000
vt 0.625000 0.833333
vt 0.708333 0.500000
vt 0.791667 0.500000
vt 0.875000 0.500000
vt 0.875000 0.524360
vt 0.625000 0.000000
vt 0.625000 0.003198
vt 0.625000 0.011935
vt 0.625000 0.023870
vt 0.875000 0.726130
vt 0.625000 0.916667
vt 0.625000 1.000000
vt 0.708333 0.726130
vt 0.625000 0.726130
vt 0.625000 0.416667
vt 0.708333 0.750000
vt 0.708333 0.746802
vt 0.708333 0.738065
vt 0.875000 0.738065
vt 0.625000 0.916667
vt 0.625000 1.000000
vt 0.625000 1.000000
vt 0.625000 0.916667
vt 0.625000 0.738065
vt 0.625000 0.750000
vt 0.625000 0.833333
vt 0.625000 0.833333
vt 0.625000 0.750000
vt 0.625000 0.746802
vn -1.0000 0.0000 0.0000
vn 0.0000 0.0000 -1.0000
vn 1.0000 0.0000 0.0000
vn 0.0000 0.0000 1.0000
vn 0.0000 -1.0000 0.0000
vn 0.0000 1.0000 0.0000
vn 0.0000 0.9659 0.2588
vn 0.0000 0.7071 0.7071
vn 0.0000 0.2588 0.9659
usemtl None
s off
f 17/1/1 18/2/1 4/3/1 3/4/1
f 9/5/2 12/6/2 8/7/2 7/8/2
f 19/9/3 20/10/3 6/11/3 5/12/3
f 13/13/4 16/14/4 2/15/4 1/16/4
f 24/17/5 19/9/5 5/12/5 14/18/5
f 22/19/4 21/20/4 31/21/4 32/22/4
f 11/23/2 4/3/2 26/24/2 30/25/2
f 21/20/6 22/19/6 16/26/6 15/27/6
f 17/28/5 23/29/5 13/30/5 1/31/5
f 23/29/5 24/17/5 14/18/5 13/30/5
f 5/12/4 6/11/4 15/32/4 14/33/4
f 14/33/4 15/32/4 16/14/4 13/13/4
f 3/4/2 4/3/2 11/23/2 10/34/2
f 10/34/2 11/23/2 12/6/2 9/5/2
f 10/35/5 9/36/5 24/17/5 23/29/5
f 3/37/5 10/35/5 23/29/5 17/28/5
f 20/10/3 8/7/3 28/38/3 29/39/3
f 4/3/1 18/2/1 25/40/1 26/24/1
f 9/36/5 7/8/5 19/9/5 24/17/5
f 7/8/3 8/7/3 20/10/3 19/9/3
f 1/41/1 2/42/1 18/2/1 17/1/1
f 16/26/3 22/19/3 32/22/3 37/43/3 39/44/3 40/45/3 38/46/3
f 15/32/4 6/11/4 34/47/4 45/48/4
f 27/49/6 30/50/6 32/22/6 31/21/6
f 28/38/6 27/49/6 31/21/6 29/39/6
f 30/50/6 26/51/6 25/52/6 32/22/6
f 18/2/1 2/42/1 41/53/1 43/54/1 44/55/1 42/56/1 25/40/1
f 32/22/6 25/52/6 42/57/6 37/43/6
f 2/15/4 16/14/4 38/58/4 41/59/4
f 29/39/6 31/21/6 46/60/6 33/61/6
f 12/6/2 11/23/2 30/25/2 27/62/2
f 8/7/2 12/6/2 27/62/2 28/38/2
f 21/20/1 15/27/1 45/63/1 47/64/1 48/65/1 46/60/1 31/21/1
f 37/43/7 42/57/7 44/66/7 39/44/7
f 39/67/8 44/68/8 43/69/8 40/70/8
f 40/70/9 43/69/9 41/59/9 38/58/9
f 33/61/7 46/60/7 48/65/7 35/71/7
f 35/72/8 48/73/8 47/74/8 36/75/8
f 36/75/9 47/74/9 45/48/9 34/47/9
f 6/11/3 20/10/3 29/39/3 33/61/3 35/71/3 36/76/3 34/47/3
