# Blender v2.90.1 OBJ File: ''
# www.blender.org
mtllib TopFloor.mtl
o Plane.001_Plane.004
v 1.031233 2.921921 4.140328
v 0.863996 2.921921 4.140328
v 0.863996 2.921921 -4.140328
v 1.031233 2.921921 -4.140328
v -3.254266 2.921921 -1.583386
v -3.254266 2.921921 -1.750623
v 0.863996 2.921921 -1.750623
v 0.863996 2.921921 -1.583386
v 3.651681 5.731059 4.140328
v 3.651681 5.731059 -4.140328
v 0.863996 5.731059 -1.750623
v 0.863996 5.731059 -1.583386
v 1.031233 5.731059 -4.140328
v 0.863996 5.731059 -4.140328
v 0.863996 5.731059 4.140328
v 1.031233 5.731059 4.140328
v -3.254266 5.731059 -1.750623
v -3.254266 5.731059 -1.583386
v -3.254266 5.731059 4.140328
v -3.254266 5.731059 -4.140328
v 1.768924 2.808541 4.253707
v 1.936161 2.808541 4.253707
v 1.768924 2.808541 -4.253707
v 1.031233 4.921920 2.427077
v 3.744255 2.829347 -4.232902
v -1.390942 4.921920 -1.750623
v -1.390942 4.921920 -1.583386
v -3.346840 2.829347 -4.232902
v -3.346840 2.829347 4.232902
v -3.367646 2.808541 -0.618334
v 1.031233 2.921921 2.427077
v 3.765061 5.731059 -4.253707
v -3.367646 2.808541 -0.785571
v 1.936161 2.808541 -4.253707
v 3.765061 5.731059 4.253707
v 3.744255 2.829347 4.232902
v 1.031233 4.921920 3.506302
v 1.031233 2.921921 3.506302
v -0.311716 2.921921 -1.583386
v -1.390942 2.921921 -1.583386
v 0.863996 2.921921 2.427077
v 0.863996 2.921921 3.506302
v -1.390942 2.921921 -1.750623
v -0.311716 2.921921 -1.750623
v -3.367646 5.731059 -4.253707
v -0.311716 4.921920 -1.750623
v -3.367646 5.731059 4.253707
v -0.311716 4.921920 -1.583386
v 0.863996 4.921920 2.427077
v 0.863996 4.921920 3.506302
v -3.347010 2.943595 4.232902
v 1.768754 2.922789 4.253707
v -3.367816 2.922789 -0.618334
v 3.744085 2.943595 -4.232902
v 1.935991 2.922789 -4.253707
v 1.935991 2.922789 4.253707
v 3.744085 2.943595 4.232902
v -3.367816 2.922789 -0.785571
v 1.768754 2.922789 -4.253707
v -3.347010 2.943595 -4.232902
v -3.254266 2.880112 4.140328
v -3.254266 2.883491 -4.140328
v 3.651681 2.896939 4.140328
v 3.651681 2.896939 -4.140328
vt 0.000000 0.000000
vt 0.000000 0.000000
vt 0.000000 0.000000
vt 0.000000 0.000000
vt 0.000000 0.000000
vt 0.000000 0.000000
vt 0.000000 0.000000
vt 0.000000 0.000000
vt 0.000000 0.594868
vt 0.000000 0.000000
vt 0.000000 0.000000
vt 0.000000 0.000000
vt 0.000000 0.000000
vt 0.000000 0.000000
vt 0.000000 0.594868
vt 0.000000 0.594868
vt 0.000000 0.574672
vt 0.000000 0.000000
vt 0.672211 0.000000
vt 0.698115 0.000000
vt 1.000000 0.000000
vt 1.000000 1.000000
vt 0.698115 1.000000
vt 0.672211 1.000000
vt 0.000000 1.000000
vt 0.000000 0.000000
vt 0.698115 1.000000
vt 0.000000 0.000000
vt 0.000000 0.000000
vt 0.000000 0.000000
vt 0.625000 0.888930
vt 0.375000 0.888930
vt 0.000000 0.000000
vt 0.000000 0.000000
vt 0.672211 0.000000
vt 0.698115 0.000000
vt 1.000000 0.000000
vt 1.000000 0.000000
vt 0.000000 0.000000
vt 0.000000 0.000000
vt 0.000000 0.000000
vt 0.000000 0.000000
vt 0.000000 0.000000
vt 0.698115 0.000000
vt 0.000000 0.000000
vt 0.000000 0.000000
vt 0.000000 0.574672
vt 0.000000 0.000000
vt 0.000000 0.000000
vt 0.672211 1.000000
vt 0.000000 0.000000
vt 0.000000 0.000000
vt 0.000000 0.594868
vt 0.000000 0.574672
vt 0.000000 1.000000
vt 0.000000 1.000000
vt 1.000000 1.000000
vt 0.698115 1.000000
vt 0.672211 1.000000
vt 1.000000 1.000000
vt 0.375000 0.359500
vt 0.375000 0.380405
vt 0.625000 0.380405
vt 0.625000 0.359500
vt 0.375000 0.361070
vt 0.375000 0.381975
vt 0.625000 0.381975
vt 0.625000 0.361070
vt 0.625000 0.609501
vt 0.625000 0.630405
vt 0.875000 0.630405
vt 0.875000 0.609501
vt 0.375000 0.868025
vt 0.625000 0.868025
vt 0.000000 0.000000
vt 0.000000 0.000000
vt 0.000000 0.000000
vt 0.000000 0.000000
vt 0.000000 0.000000
vt 0.000000 0.000000
vt 0.000000 0.000000
vt 0.375000 0.869595
vt 0.375000 0.890499
vt 0.625000 0.890500
vt 0.625000 0.869595
vt 0.625000 0.611070
vt 0.625000 0.631975
vt 0.875000 0.631975
vt 0.875000 0.611070
vt 0.000000 0.000000
vt 0.000000 0.000000
vt 0.000000 0.000000
vt 0.000000 0.000000
vt 0.000000 0.000000
vt 0.000000 0.000000
vt 0.000000 0.000000
vt 0.000000 0.000000
vt 0.000000 0.000000
vt 0.000000 0.000000
vt 0.000000 0.000000
vt 0.000000 0.000000
vt 0.000000 0.000000
vn 0.0000 1.0000 0.0000
vn 0.0000 0.0000 -1.0000
vn -0.7071 0.0000 -0.7071
vn -0.5773 -0.5774 -0.5774
vn 0.5774 -0.5774 -0.5774
vn 0.7071 0.0000 -0.7071
vn -0.7098 0.7044 -0.0021
vn -0.7093 0.7049 0.0015
vn -0.5776 0.5781 0.5764
vn -0.0025 0.7060 0.7082
vn 0.0030 0.7040 0.7102
vn 0.5807 0.5801 0.5713
vn 0.5807 0.5801 -0.5713
vn 0.0030 0.7040 -0.7102
vn -0.0025 0.7060 -0.7082
vn -0.5766 0.5784 -0.5770
vn -1.0000 0.0000 0.0000
vn 1.0000 0.0000 -0.0000
vn 0.5774 -0.5774 -0.5773
vn 0.5774 -0.5774 0.5774
vn 0.7071 0.0000 0.7071
vn 0.5774 -0.5773 0.5774
vn -0.5773 -0.5774 0.5773
vn -0.7071 -0.0000 0.7071
vn 0.0000 -0.0000 1.0000
vn -0.0033 -0.0139 0.9999
vn 0.0187 -0.0117 0.9998
vn 0.7120 -0.0159 0.7019
vn 0.5725 0.5780 0.5815
vn -0.5809 0.5702 0.5809
vn -0.7069 -0.0190 0.7070
vn 0.0000 0.7071 -0.7071
vn 0.3015 0.9045 -0.3015
vn -0.3015 0.9045 -0.3015
vn -0.3015 0.9045 0.3015
vn 0.5755 0.5810 -0.5755
vn 0.7071 0.7071 0.0000
vn 0.3015 0.9045 0.3015
vn -0.5812 0.5798 -0.5709
vn 0.0000 0.7071 0.7071
vn -0.9999 -0.0139 -0.0049
vn -0.9999 -0.0138 0.0035
vn -0.7066 -0.0205 -0.7073
vn 0.6986 -0.0184 -0.7153
vn -0.0000 -0.0161 -0.9999
vn -0.0033 -0.0138 -0.9999
vn -0.5774 -0.5774 0.5774
vn 0.7090 0.0011 -0.7053
vn 0.0057 0.0000 -1.0000
vn -0.0020 -0.0000 1.0000
vn 0.0057 0.0000 1.0000
vn -0.0020 -0.0000 -1.0000
vn -0.7065 -0.0011 -0.7077
vn -1.0000 -0.0015 -0.0030
vn 0.7090 0.0011 0.7053
vn -0.7067 -0.0011 0.7075
vn -1.0000 -0.0015 0.0021
vn 0.0015 -1.0000 0.0000
vn -0.7066 0.0000 -0.7077
vn 0.7076 0.0000 -0.7066
vn 0.7076 0.0000 0.7066
vn -0.7067 0.0000 0.7075
usemtl None
s off
f 17/1/1 18/2/1 12/3/1 15/4/1 16/5/1 13/6/1 14/7/1 11/8/1
s 1
f 17/9/2 11/8/3 7/10/3 44/11/3 46/12/4 26/13/5 43/14/6 6/15/2
f 58/16/7 53/17/8 51/18/9 52/19/10 56/20/11 57/21/12 54/22/13 55/23/14 59/24/15 60/25/16
f 14/7/17 3/26/17 7/10/3 11/8/3
f 4/27/18 13/6/18 16/5/18 1/28/18 38/29/6 37/30/19 24/31/20 31/32/21
f 27/33/22 48/34/23 12/3/24 18/2/25
f 21/35/26 22/36/27 36/37/28 35/38/29 47/39/30 29/40/31
f 15/4/32 19/41/33 47/39/30 35/42/29 9/43/34 16/44/32
f 10/45/35 9/43/34 35/42/29 32/46/36
f 18/47/37 17/1/37 20/48/38 45/49/39 47/39/30 19/41/33
f 20/48/38 14/50/40 13/6/40 10/45/35 32/46/36 45/49/39
f 40/51/21 27/33/22 18/2/25 5/52/25
f 33/53/41 30/54/42 29/40/31 47/39/30 45/55/39 28/56/43
f 25/57/44 34/58/45 23/59/46 28/56/43 45/55/39 32/60/36
f 36/37/28 25/57/44 32/60/36 35/38/29
f 44/61/3 39/62/24 48/63/23 46/64/4
f 38/65/6 42/66/3 50/67/4 37/68/19
f 46/69/4 48/70/23 27/71/22 26/72/5
f 41/73/24 31/32/21 24/31/20 49/74/47
f 2/75/17 15/4/17 12/3/24 8/76/24 41/77/24 49/78/47 50/79/4 42/80/3
f 48/34/23 39/81/24 8/76/24 12/3/24
f 25/57/48 34/58/49 55/23/14 54/22/13
f 40/82/21 43/83/6 26/84/5 27/85/22
f 37/86/19 50/87/4 49/88/47 24/89/20
f 21/35/50 22/36/51 56/20/11 52/19/10
f 23/59/52 28/56/53 60/25/16 59/24/15
f 28/56/53 33/53/54 58/16/7 60/25/16
f 36/37/55 25/57/48 54/22/13 57/21/12
f 22/36/51 36/37/55 57/21/12 56/20/11
f 29/40/56 21/35/50 52/19/10 51/18/9
f 33/53/54 30/54/57 53/17/8 58/16/7
f 30/54/57 29/40/56 51/18/9 53/17/8
f 34/58/49 23/59/52 59/24/15 55/23/14
f 29/40/58 30/90/58 33/91/58 28/92/58 23/93/58 34/94/58 25/95/58 36/96/58 22/97/58 21/98/58
f 63/99/59 61/100/60 19/41/33 15/4/32 16/5/32 9/43/34
f 17/1/37 18/2/37 19/41/33 61/100/60 62/101/61 20/48/38
f 13/6/40 14/7/40 20/48/38 62/101/61 64/102/62 10/45/35
f 9/43/34 10/45/35 64/102/62 63/99/59
